<svg width="35" height="35" viewBox="0 0 35 35" fill="none" xmlns="http://www.w3.org/2000/svg">
<circle cx="17.5" cy="17.5" r="17.5" fill="#5FB2FF"/>
<path d="M13.6504 25V10.7812H17.6641C18.901 10.7812 19.9948 11.0547 20.9453 11.6016C21.8958 12.1484 22.6283 12.9264 23.1426 13.9355C23.6634 14.9447 23.9271 16.1035 23.9336 17.4121V18.3203C23.9336 19.6615 23.6732 20.8366 23.1523 21.8457C22.638 22.8548 21.8991 23.6296 20.9355 24.1699C19.9785 24.7103 18.862 24.987 17.5859 25H13.6504ZM15.5254 12.3242V23.4668H17.498C18.9434 23.4668 20.0664 23.0176 20.8672 22.1191C21.6745 21.2207 22.0781 19.9414 22.0781 18.2812V17.4512C22.0781 15.8366 21.6973 14.5833 20.9355 13.6914C20.1803 12.793 19.1061 12.3372 17.7129 12.3242H15.5254Z" fill="white"/>
<path d="M14 14L22 15.5V23L14 25V14Z" fill="white"/>
<rect x="14" y="12" width="8" height="5" fill="white"/>
<rect width="2" height="3" transform="matrix(-1 0 0 1 23 16)" fill="white"/>
</svg>
